#!OML:ASF E:\motion texture\Top Level 1\Subject 1\Session 1\male.ASF
:FULLY-SPECIFIED
:DEGREES
322
root -11.2498 18.0553 3.35443 449.143 -83.2322 -444.458
lowerback -1.46611 -1.3264 5.62678
upperback -2.19233 -1.97598 6.80853
thorax -1.38303 -1.12084 3.88572
lowerneck -9.6761 -5.75991 -6.6386
upperneck 22.2595 -8.53725 5.18301
head 9.07138 -4.22591 1.90959
rclavicle -5.36796e-015 -1.27222e-014
rhumerus 28.9792 3.83279 -46.4987
rradius 124.113
rwrist -0.195607
rhand -21.7493 -27.463
rfingers 7.12502
rthumb 4.65083 -57.3919
lclavicle -5.36796e-015 -1.27222e-014
lhumerus 30.632 -15.5311 55.0098
lradius 117.679
lwrist -16.8431
lhand -25.2743 25.3174
lfingers 7.12502
lthumb 1.24667 55.2935
rfemur -20.3054 -1.34721 27.3312
rtibia 21.7897
rfoot -3.83236 -6.81837
rtoes 16.2318
lfemur -10.4363 -0.455716 -8.9979
ltibia 55.0264
lfoot 11.459 -3.34772
ltoes -10.1538
323
root -11.389 18.0718 3.32605 449.001 -83.0836 -444.392
lowerback -1.45096 -1.27835 5.7878
upperback -2.17221 -1.91371 6.80024
thorax -1.37801 -1.09223 3.78742
lowerneck -9.69982 -5.75589 -6.6367
upperneck 22.0708 -8.55221 5.37008
head 9.01994 -4.21129 1.97157
rclavicle -5.95655e-015 -7.95139e-015
rhumerus 29.6364 3.54732 -46.2069
rradius 124.278
rwrist -0.0991993
rhand -21.8561 -27.2647
rfingers 7.12502
rthumb 4.54773 -57.1959
lclavicle -5.95655e-015 -7.95139e-015
lhumerus 31.0282 -15.5434 54.8672
lradius 117.636
lwrist -16.7881
lhand -25.4494 25.2257
lfingers 7.12502
lthumb 1.07753 55.2027
rfemur -19.5557 -1.20176 27.6166
rtibia 21.5379
rfoot -4.17565 -6.86479
rtoes 16.463
lfemur -11.2722 -0.162192 -8.71117
ltibia 56.2491
lfoot 10.7365 -2.88
ltoes -11.0592
324
root -11.5279 18.0889 3.29802 448.794 -82.988 -444.254
lowerback -1.46141 -1.23736 5.89477
upperback -2.13912 -1.86284 6.77311
thorax -1.34337 -1.06748 3.69822
lowerneck -9.6923 -5.74948 -6.65955
upperneck 21.8447 -8.56546 5.59097
head 8.95255 -4.19544 2.05021
rclavicle 1.2254e-014 -2.22639e-014
rhumerus 30.1764 3.30124 -45.9379
rradius 124.415
rwrist 0.0208306
rhand -21.9097 -27.0234
rfingers 7.12502
rthumb 4.49597 -56.9557
lclavicle 1.2254e-014 -2.22639e-014
lhumerus 31.341 -15.553 54.7505
lradius 117.607
lwrist -16.7175
lhand -25.6222 25.116
lfingers 7.12502
lthumb 0.910676 55.0938
rfemur -18.8028 -1.07269 27.8383
rtibia 21.2621
rfoot -4.49793 -6.9073
rtoes 16.6517
lfemur -12.1033 0.110233 -8.50446
ltibia 57.3593
lfoot 9.81373 -2.37174
ltoes -11.9224
325
root -11.6666 18.1064 3.27053 448.565 -82.9286 -444.089
lowerback -1.49254 -1.20004 5.96547
upperback -2.09536 -1.81879 6.73278
thorax -1.28494 -1.04478 3.61447
lowerneck -9.65385 -5.74582 -6.68727
upperneck 21.5802 -8.58166 5.82083
head 8.86737 -4.1815 2.13318
rclavicle -1.89544e-014 1.90833e-014
rhumerus 30.6032 3.08966 -45.6891
rradius 124.523
rwrist 0.176055
rhand -21.9013 -26.731
rfingers 7.12502
rthumb 4.50411 -56.6631
lclavicle -1.89544e-014 1.90833e-014
lhumerus 31.5727 -15.569 54.6625
lradius 117.593
lwrist -16.6438
lhand -25.798 25.002
lfingers 7.12502
lthumb 0.740812 54.9805
rfemur -18.044 -0.957054 28.0163
rtibia 20.9605
rfoot -4.79026 -6.95072
rtoes 16.8248
lfemur -12.924 0.365527 -8.35533
ltibia 58.3423
lfoot 8.80156 -1.84591
ltoes -12.68
326
root -11.8048 18.1241 3.24345 448.335 -82.8913 -443.917
lowerback -1.53491 -1.16453 6.01476
upperback -2.04537 -1.77808 6.68243
thorax -1.21314 -1.02289 3.53171
lowerneck -9.62369 -5.75057 -6.69481
upperneck 21.3076 -8.60639 6.03021
head 8.78009 -4.17204 2.20442
rclavicle -2.80628e-015 5.725e-014
rhumerus 30.9207 2.91242 -45.46
rradius 124.602
rwrist 0.342787
rhand -21.8264 -26.4559
rfingers 7.12502
rthumb 4.57637 -56.3865
lclavicle -2.80628e-015 5.725e-014
lhumerus 31.7308 -15.6026 54.6045
lradius 117.588
lwrist -16.5766
lhand -25.9412 24.9274
lfingers 7.12502
lthumb 0.602507 54.9062
rfemur -17.278 -0.848384 28.1678
rtibia 20.6279
rfoot -5.04978 -6.99665
rtoes 16.98
lfemur -13.7335 0.606372 -8.24297
ltibia 59.1901
lfoot 7.79105 -1.34698
ltoes -13.1539
327
root -11.9424 18.1417 3.21707 448.076 -82.8617 -443.711
lowerback -1.59146 -1.13126 6.06049
upperback -1.99249 -1.74175 6.62477
thorax -1.13028 -1.00276 3.44292
lowerneck -9.56482 -5.75322 -6.7083
upperneck 21.015 -8.62807 6.24539
head 8.68141 -4.16234 2.27957
rclavicle -7.09568e-015 -2.8625e-014
rhumerus 31.1294 2.77539 -45.2513
rradius 124.649
rwrist 0.481813
rhand -21.7243 -26.1846
rfingers 7.12502
rthumb 4.67494 -56.1131
lclavicle -7.09568e-015 -2.8625e-014
lhumerus 31.8092 -15.6584 54.5751
lradius 117.582
lwrist -16.5262
lhand -26.0723 24.8561
lfingers 7.12502
lthumb 0.475924 54.8353
rfemur -16.5078 -0.747521 28.3086
rtibia 20.2685
rfoot -5.28093 -7.04903
rtoes 17.1181
lfemur -14.532 0.823532 -8.15125
ltibia 59.8998
lfoot 6.79048 -0.909679
ltoes -13.4388
328
root -12.079 18.1588 3.19127 447.829 -82.8261 -443.512
lowerback -1.65142 -1.09723 6.11369
upperback -1.93868 -1.70495 6.56538
thorax -1.04473 -0.982357 3.34825
lowerneck -9.47396 -5.76317 -6.72564
upperneck 20.697 -8.65579 6.44929
head 8.56881 -4.1582 2.35157
rclavicle 2.38264e-014 -4.92986e-014
rhumerus 31.2408 2.67618 -45.0584
rradius 124.664
rwrist 0.557439
rhand -21.6051 -25.9408
rfingers 7.12502
rthumb 4.79009 -55.8667
lclavicle 2.38264e-014 -4.92986e-014
lhumerus 31.8085 -15.74 54.5809
lradius 117.564
lwrist -16.5089
lhand -26.2014 24.7778
lfingers 7.12502
lthumb 0.35126 54.7573
rfemur -15.7377 -0.645186 28.4561
rtibia 19.8894
rfoot -5.4915 -7.11651
rtoes 17.2799
lfemur -15.3193 1.02387 -8.05977
ltibia 60.4742
lfoot 5.80545 -0.573199
ltoes -13.6656
